<?xml version="1.0" encoding="utf-8"?>
<!-- Generator: Adobe Illustrator 19.1.0, SVG Export Plug-In . SVG Version: 6.00 Build 0)  -->
<svg version="1.0" id="Layer_1" xmlns="http://www.w3.org/2000/svg" xmlns:xlink="http://www.w3.org/1999/xlink" x="0px" y="0px"
	 viewBox="-263 228 113 25" style="enable-background:new -263 228 113 25;" xml:space="preserve">
<style type="text/css">
	.st0{fill:#00AEEF;}
	.st1{fill:url(#SVGID_1_);}
	.st2{fill:#FFFFFF;}
</style>
<path class="st0" d="M-184.1,252.9h-20.6c-0.5,0-1-0.3-1.2-0.8c-0.2-0.5-0.1-1,0.3-1.4l10.3-10.3l-10.3-10.3
	c-0.4-0.4-0.5-0.9-0.3-1.4c0.2-0.5,0.7-0.8,1.2-0.8h31c6.4,0,11.8,4.9,12.4,11.2h9.1c0.7,0,1.3,0.6,1.3,1.2c0,0.7-0.6,1.2-1.3,1.2
	h-20.6c-2.4,0-4.3,2-4.3,4.3C-177.2,249.8-180.3,252.9-184.1,252.9z M-201.7,250.4h17.6c2.4,0,4.3-2,4.3-4.3c0-1.7,0.6-3.2,1.6-4.3
	H-193L-201.7,250.4z M-193,239.2h29.1c-0.6-4.9-4.8-8.7-9.9-8.7h-28L-193,239.2z"/>
<path d="M-260.6,236.5v3.4c0,0.6,0.3,0.9,0.9,0.9h5.8c0.8,0,1,0.2,1,1v0.2c0,0.8-0.2,1-1,1h-6.5c-1.8,0-2.6-0.8-2.6-2.6v-9.7
	c0-1.8,0.8-2.6,2.6-2.6h6.5c0.8,0,1,0.2,1,1v0.2c0,0.8-0.2,1-1,1h-5.8c-0.6,0-0.9,0.3-0.9,0.9v2.9h5.8c0.8,0,1,0.2,1,1v0.2
	c0,0.8-0.2,1-1,1L-260.6,236.5L-260.6,236.5z"/>
<path d="M-233.7,242c0.1,0.8-0.1,1.1-1,1.1h-0.3c-0.8,0-1.1-0.2-1.1-1.1l-0.7-10.6c-0.1-1-0.3-1.2-0.8-1.2c-0.5,0-0.7,0.3-0.8,1.2
	l-1.2,9.2c-0.3,1.8-0.8,2.4-2.5,2.4c-1.6,0-2.3-0.6-2.5-2.4l-1.3-9.2c-0.1-0.9-0.3-1.2-0.8-1.2s-0.7,0.3-0.8,1.2l-0.7,10.6
	c0,0.8-0.3,1.1-1.1,1.1h-0.3c-0.8,0-1.1-0.2-1-1.1l0.8-10.6c0.2-2.4,1.1-3.4,3.1-3.4c1.9,0,2.8,1,3.1,3.4l1.1,8.9
	c0.1,0.7,0.2,0.8,0.5,0.8c0.3,0,0.4-0.1,0.5-0.8l1.1-8.9c0.3-2.4,1.2-3.4,3.1-3.4c2,0,3,1,3.1,3.4L-233.7,242z"/>
<path d="M-231.2,229.2c0-0.8,0.2-1.1,1.1-1.1h0.3c0.8,0,1.1,0.2,1.1,1.1V240c0,0.6,0.3,0.9,0.9,0.9h4.9c0.8,0,1,0.2,1,1v0.2
	c0,0.8-0.2,1-1,1h-5.6c-1.8,0-2.6-0.8-2.6-2.6V229.2z"/>
<path d="M-217.4,236.5v3.4c0,0.6,0.3,0.9,0.9,0.9h5.8c0.8,0,1,0.2,1,1v0.2c0,0.8-0.2,1-1,1h-6.5c-1.8,0-2.6-0.8-2.6-2.6v-9.7
	c0-1.8,0.8-2.6,2.6-2.6h6.5c0.8,0,1,0.2,1,1v0.2c0,0.8-0.2,1-1,1h-5.8c-0.6,0-0.9,0.3-0.9,0.9v2.9h5.8c0.8,0,1,0.2,1,1v0.2
	c0,0.8-0.2,1-1,1L-217.4,236.5L-217.4,236.5z"/>
<path d="M-263,246.5c0-1.1,0.4-1.5,1.4-1.5c0.8,0,1.2,0.3,1.4,1.2l1.5,5.2c0.1,0.3,0.2,0.3,0.3,0.3s0.2-0.1,0.2-0.4v-5.8
	c0-0.4,0.1-0.5,0.5-0.5h0.1c0.4,0,0.5,0.1,0.5,0.5v5.7c0,1.1-0.4,1.5-1.3,1.5c-0.8,0-1.2-0.3-1.5-1.3l-1.4-5.1
	c-0.1-0.3-0.1-0.4-0.3-0.4c-0.2,0-0.2,0.1-0.2,0.4v5.8c0,0.4-0.1,0.5-0.5,0.5h-0.1c-0.4,0-0.5-0.1-0.5-0.5V246.5z"/>
<path d="M-255.6,250.3v-1c0-1.7,0.9-2.5,2.7-2.5c1.8,0,2.7,0.8,2.7,2.5v1c0,1.6-0.9,2.5-2.7,2.5C-254.8,252.9-255.6,252-255.6,250.3
	z M-251.4,249.3c0-1-0.4-1.4-1.5-1.4c-1.1,0-1.5,0.4-1.5,1.4v1c0,1,0.4,1.4,1.5,1.4c1.1,0,1.5-0.4,1.5-1.4V249.3z"/>
<path d="M-249.5,247.5c0-0.3,0.1-0.4,0.4-0.5l0.6-0.1l0.1-1.1c0-0.3,0.1-0.4,0.5-0.4h0.2c0.3,0,0.4,0.1,0.4,0.4v1.1h1.6
	c0.4,0,0.5,0.1,0.5,0.5v0.1c0,0.4-0.1,0.5-0.5,0.5h-1.6v2.7c0,0.7,0.3,1,0.9,1c0.4,0,0.7,0,0.9-0.1c0.4-0.1,0.5,0,0.5,0.4v0.1
	c0,0.4-0.1,0.5-0.5,0.6c-0.3,0.1-0.7,0.1-0.9,0.1c-1.4,0-2.1-0.7-2.1-2.2V248h-0.6c-0.3,0-0.4-0.1-0.4-0.4V247.5z"/>
<path d="M-239.2,249.7c0,0.4-0.2,0.5-0.6,0.5h-3.3v0.3c0,0.9,0.5,1.2,1.7,1.2c0.5,0,1-0.1,1.5-0.2c0.4-0.1,0.5,0,0.5,0.4v0.2
	c0,0.4-0.1,0.5-0.5,0.6c-0.5,0.1-1,0.2-1.5,0.2c-2,0-2.9-0.8-2.9-2.5v-1c0-1.7,0.9-2.5,2.6-2.5c1.6,0,2.5,0.8,2.5,2.4
	C-239.1,249.3-239.1,249.5-239.2,249.7z M-243,249.3h2.7V249c0-0.8-0.5-1.2-1.4-1.2c-0.9,0-1.4,0.4-1.4,1.2V249.3z"/>
<path d="M-238.2,251.9c0-0.4,0.1-0.5,0.5-0.4c0.6,0.2,1.1,0.2,1.7,0.2c0.8,0,1.1-0.1,1.1-0.5c0-0.3-0.2-0.4-0.8-0.7l-1.3-0.6
	c-0.8-0.4-1.2-0.8-1.2-1.6c0-1.1,0.7-1.6,2.2-1.6c0.5,0,0.9,0.1,1.4,0.2c0.4,0.1,0.5,0.2,0.5,0.6v0.1c0,0.4-0.1,0.5-0.5,0.4
	c-0.4-0.1-0.9-0.2-1.4-0.2c-0.8,0-1,0.1-1,0.5c0,0.3,0.1,0.4,0.6,0.6l1.4,0.6c0.9,0.4,1.3,0.8,1.3,1.7c0,1.1-0.7,1.6-2.4,1.6
	c-0.6,0-1.1-0.1-1.6-0.2c-0.4-0.1-0.5-0.2-0.5-0.6V251.9z"/>
<linearGradient id="SVGID_1_" gradientUnits="userSpaceOnUse" x1="-231.2374" y1="248.9271" x2="-209.6474" y2="248.9271">
	<stop  offset="0" style="stop-color:#0062FF"/>
	<stop  offset="1" style="stop-color:#00AEEF"/>
</linearGradient>
<path class="st1" d="M-211.6,252.9h-19.6V248c0-1.7,1.3-3,3-3h18.6v5.9C-209.6,252-210.5,252.9-211.6,252.9z"/>
<g>
	<path class="st2" d="M-228.1,246.7h1.9c0.5,0,0.9,0.1,1.2,0.3c0.3,0.2,0.4,0.5,0.4,1c0,0.3,0,0.5-0.1,0.7s-0.3,0.3-0.5,0.4
		c0.3,0.1,0.5,0.2,0.6,0.4s0.2,0.4,0.2,0.8c0,0.9-0.5,1.4-1.6,1.4h-2V246.7z M-226.1,248.9c0.3,0,0.5-0.1,0.6-0.2
		c0.1-0.1,0.2-0.3,0.2-0.6s-0.1-0.5-0.2-0.6c-0.1-0.1-0.4-0.2-0.7-0.2h-1.2v1.6H-226.1z M-226.1,251.1c0.3,0,0.5-0.1,0.7-0.2
		s0.2-0.3,0.2-0.6c0-0.6-0.3-0.8-0.9-0.8h-1.2v1.6H-226.1z"/>
	<path class="st2" d="M-222.7,247.3v1.6h2v0.6h-2v1.6h2.5v0.6h-3.2v-5h3.2v0.6H-222.7z"/>
	<path class="st2" d="M-218.3,247.3h-1.5v-0.6h3.7v0.6h-1.5v4.4h-0.7V247.3z"/>
	<path class="st2" d="M-213.1,250.6h-2.1l-0.3,1.2h-0.7l1.3-5h1.5l1.3,5h-0.7L-213.1,250.6z M-215,249.9h1.8l-0.7-2.6h-0.4
		L-215,249.9z"/>
</g>
</svg>
